<?xml version="1.0" standalone="no"?>
<!DOCTYPE svg PUBLIC "-//W3C//DTD SVG 20010904//EN"
 "http://www.w3.org/TR/2001/REC-SVG-20010904/DTD/svg10.dtd">
<svg version="1.0" xmlns="http://www.w3.org/2000/svg"
 width="1024.000000pt" height="1024.000000pt" viewBox="0 0 1024.000000 1024.000000"
 preserveAspectRatio="xMidYMid meet">
<metadata>
Created by potrace 1.14, written by Peter Selinger 2001-2017
</metadata>
<g transform="translate(0.000000,1024.000000) scale(0.100000,-0.100000)"
fill="#000000" stroke="none">
<path d="M2418 10235 c-2 -3 -20 -7 -39 -9 -19 -3 -50 -8 -69 -11 -19 -4 -39
-8 -45 -9 -5 -1 -16 -5 -22 -9 -7 -5 -13 -6 -13 -3 0 11 -176 -57 -255 -97
-127 -65 -231 -143 -337 -251 -59 -60 -171 -210 -191 -256 -7 -14 -14 -27 -18
-30 -18 -15 -93 -213 -113 -300 -31 -130 -31 -103 -31 -4145 0 -2200 4 -4013
8 -4030 5 -16 10 -43 13 -60 2 -16 7 -39 11 -50 4 -11 8 -26 9 -32 6 -35 48
-152 71 -197 94 -188 199 -325 334 -438 24 -21 50 -43 57 -49 28 -23 132 -89
141 -89 5 0 11 -3 13 -8 5 -11 181 -88 184 -80 0 2 7 -2 15 -8 8 -7 30 -15 49
-19 19 -4 39 -10 45 -13 5 -3 18 -7 30 -9 11 -1 58 -9 105 -17 74 -13 439 -15
2790 -13 2015 2 2715 6 2745 14 22 7 51 14 65 17 82 17 293 96 310 115 3 4 16
11 30 18 40 17 182 123 245 181 148 138 264 317 335 517 17 50 31 91 31 93 -1
1 -1 3 0 5 1 5 7 33 13 62 3 17 9 41 13 55 4 14 9 1361 10 2994 l3 2968 -20
-5 c-11 -3 -22 -1 -25 4 -3 4 -17 4 -30 -1 -15 -6 -25 -6 -25 0 0 5 -12 5 -27
1 -16 -4 -40 -4 -55 0 -16 4 -28 3 -28 -2 0 -5 -11 -4 -25 1 -15 6 -26 6 -30
-1 -4 -5 -11 -7 -16 -3 -15 9 -80 11 -85 2 -3 -4 -16 -3 -29 2 -15 6 -27 6
-30 0 -3 -6 -15 -6 -30 0 -15 6 -27 6 -30 0 -4 -6 -13 -7 -23 -1 -11 6 -24 6
-34 0 -10 -6 -19 -6 -23 0 -4 7 -15 7 -30 1 -15 -6 -25 -6 -25 0 0 5 -12 5
-30 0 -16 -5 -30 -6 -30 -2 0 4 -25 7 -55 7 -30 0 -55 -3 -55 -7 0 -4 -11 -3
-25 2 -15 6 -27 6 -30 0 -3 -6 -15 -6 -30 0 -15 6 -27 6 -30 0 -3 -5 -15 -6
-28 -1 -13 5 -30 5 -39 0 -10 -6 -19 -6 -23 0 -4 7 -15 7 -30 1 -14 -5 -25 -6
-25 -2 0 4 -38 7 -85 7 -47 0 -85 -3 -85 -7 0 -4 -10 -4 -22 1 -12 4 -39 5
-60 1 -21 -4 -38 -4 -38 1 0 4 -13 4 -30 -1 -16 -5 -30 -6 -30 -2 0 4 -25 7
-55 7 -30 0 -55 -3 -55 -7 0 -4 -11 -3 -24 2 -13 5 -27 6 -30 3 -7 -7 -76 -10
-76 -3 0 3 -25 5 -55 5 -30 0 -55 -3 -55 -7 0 -4 -11 -3 -25 2 -15 6 -27 6
-30 0 -3 -6 -15 -6 -30 0 -15 6 -27 6 -30 0 -3 -5 -12 -7 -21 -3 -22 8 -194 9
-194 1 0 -4 -11 -3 -25 2 -15 6 -25 6 -25 0 0 -5 -12 -5 -30 0 -18 5 -32 5
-35 -1 -4 -5 -13 -5 -23 0 -11 6 -24 6 -34 0 -10 -6 -19 -6 -23 0 -4 7 -15 7
-30 1 -16 -6 -25 -6 -25 0 0 6 -9 6 -25 0 -14 -5 -25 -6 -25 -2 0 8 -57 8 -66
-1 -3 -3 -17 -2 -30 3 -14 6 -26 6 -29 -1 -4 -5 -11 -7 -16 -3 -5 3 -40 7 -77
9 -37 2 -80 6 -97 10 -16 4 -37 8 -45 10 -8 2 -16 4 -17 5 -2 2 -6 3 -10 4 -5
1 -25 10 -47 19 -21 9 -40 17 -42 17 -16 0 -120 84 -172 138 -59 61 -136 194
-147 250 -2 9 -4 17 -5 17 -3 0 -10 58 -14 128 -3 38 -7 71 -10 74 -3 3 -1 13
4 22 5 10 5 23 0 31 -5 8 -5 21 0 30 5 9 5 22 0 30 -5 8 -5 21 0 30 5 9 5 22
0 30 -5 8 -5 21 0 30 5 9 5 22 0 30 -5 8 -5 21 0 30 5 9 5 22 0 30 -5 8 -5 21
0 30 5 9 5 22 0 30 -5 8 -5 21 0 30 5 9 5 22 0 29 -4 8 -4 27 0 42 5 16 5 29
0 29 -5 0 -5 13 0 30 5 17 6 30 2 30 -4 0 -7 23 -7 50 0 28 3 50 7 50 4 0 3
13 -2 30 -5 18 -5 32 1 35 5 4 5 13 0 24 -5 9 -6 23 -1 31 4 7 4 24 0 36 -6
14 -5 26 0 29 6 3 6 15 0 30 -5 14 -6 25 -1 25 5 0 5 18 1 40 -4 22 -4 40 1
40 4 0 4 13 -1 30 -5 18 -5 32 1 35 5 4 5 13 0 24 -5 9 -6 23 -1 31 4 7 4 24
0 36 -6 14 -5 26 0 29 6 3 6 15 0 30 -5 14 -6 25 -2 25 8 0 7 89 -2 97 -3 3
-1 14 4 24 7 11 7 20 0 24 -5 3 -6 15 -1 28 5 12 5 34 0 49 -4 16 -4 28 1 28
5 0 5 13 0 30 -5 17 -5 30 0 30 5 0 5 12 1 28 -5 15 -5 37 0 49 5 13 4 25 -1
28 -6 4 -7 13 -1 24 5 9 6 23 1 31 -4 7 -4 24 0 36 6 14 5 26 0 29 -6 4 -7 13
-1 24 5 9 6 23 1 30 -4 8 -4 27 0 42 5 16 5 29 0 29 -5 0 -5 13 0 30 5 17 5
30 0 30 -5 0 -5 13 0 30 5 17 5 30 0 30 -5 0 -5 13 0 30 5 17 5 30 0 30 -5 0
-5 13 0 30 5 17 5 30 0 30 -5 0 -5 13 0 30 5 17 5 30 0 30 -5 0 -5 13 0 30 5
17 5 30 0 30 -5 0 -5 13 0 30 5 17 5 30 0 30 -5 0 -5 13 0 30 5 17 5 30 0 30
-5 0 -5 13 0 30 5 17 5 30 0 30 -5 0 -5 13 0 30 5 17 5 30 1 30 -4 0 -6 14 -3
30 l4 30 -1669 0 c-919 0 -1672 -3 -1675 -5z"/>
<path d="M6399 10214 c-3 -74 0 -174 5 -183 4 -5 2 -12 -3 -16 -7 -4 -7 -15
-1 -30 5 -14 6 -25 1 -25 -5 0 -5 -18 -1 -40 4 -22 4 -40 -1 -40 -4 0 -4 -13
1 -30 5 -18 5 -32 -1 -35 -5 -4 -5 -13 0 -24 5 -9 6 -23 1 -31 -4 -7 -4 -24 0
-36 6 -14 5 -26 0 -29 -6 -3 -6 -15 0 -30 5 -14 6 -25 1 -25 -5 0 -5 -18 -1
-40 4 -22 4 -40 -1 -40 -4 0 -4 -13 1 -30 5 -18 5 -32 -1 -35 -5 -4 -5 -13 0
-24 5 -9 6 -23 1 -31 -4 -7 -4 -24 0 -36 6 -14 5 -26 0 -29 -6 -3 -6 -15 0
-30 5 -14 6 -25 1 -25 -5 0 -5 -18 -1 -40 4 -22 4 -40 -1 -40 -4 0 -4 -13 1
-30 5 -18 5 -32 -1 -35 -5 -4 -5 -13 0 -24 5 -9 6 -23 1 -31 -4 -7 -4 -24 0
-36 6 -14 5 -26 0 -29 -6 -3 -6 -15 0 -30 5 -14 6 -25 2 -25 -4 0 -6 -21 -4
-47 1 -27 3 -54 2 -60 0 -7 0 -20 0 -28 0 -8 0 -22 0 -30 0 -8 0 -22 0 -30 0
-8 0 -22 0 -30 0 -8 0 -22 0 -30 0 -8 0 -22 0 -30 0 -8 0 -22 0 -30 0 -8 0
-22 0 -30 0 -8 0 -22 0 -30 0 -8 0 -22 0 -30 0 -8 0 -22 0 -30 0 -8 0 -22 0
-30 0 -8 0 -22 0 -30 0 -8 0 -22 0 -30 0 -8 0 -22 0 -30 0 -8 0 -22 0 -30 0
-8 0 -22 0 -30 0 -8 0 -22 0 -30 0 -8 0 -22 0 -30 0 -8 0 -22 0 -30 0 -8 0
-22 0 -30 0 -8 0 -22 0 -30 0 -8 0 -22 0 -30 0 -8 0 -22 0 -30 0 -8 0 -22 0
-30 0 -8 0 -22 0 -30 0 -8 0 -22 0 -30 0 -8 0 -22 0 -30 0 -8 0 -22 0 -30 0
-8 0 -22 0 -30 0 -8 0 -22 0 -30 0 -8 0 -22 0 -30 0 -8 0 -22 0 -30 0 -8 0
-22 0 -30 0 -8 0 -22 0 -30 0 -8 0 -22 0 -30 0 -8 0 -22 0 -30 0 -8 0 -22 0
-30 0 -88 -2 -84 31 -75 16 5 31 5 34 0 3 -5 16 -5 30 0 14 5 27 5 30 0 3 -5
18 -5 35 0 16 5 32 5 35 0 3 -5 19 -5 35 0 17 5 30 5 30 0 0 -5 13 -5 30 0 17
5 30 5 30 0 0 -5 13 -5 30 0 17 5 32 5 35 0 3 -5 16 -5 30 0 14 5 27 5 30 0 3
-5 18 -5 35 0 16 5 32 5 35 0 3 -5 19 -5 35 0 17 5 30 5 30 0 0 -5 13 -5 30 0
17 5 30 5 30 0 0 -5 13 -5 30 0 17 5 32 5 35 0 3 -5 16 -5 30 0 14 5 27 5 30
0 3 -5 18 -5 35 0 16 5 32 5 35 0 3 -5 19 -5 35 0 17 5 30 5 30 0 0 -5 13 -5
30 0 17 5 30 5 30 0 0 -5 13 -5 30 0 17 5 32 5 35 0 3 -5 16 -5 30 0 14 5 27
5 30 0 3 -5 18 -5 35 0 16 5 32 5 35 0 3 -5 19 -5 35 0 17 5 30 5 30 0 0 -5 6
-7 13 -4 23 8 98 10 103 2 3 -4 16 -3 29 2 15 6 27 6 30 0 3 -5 15 -6 28 -1
12 5 34 5 49 0 16 -4 28 -4 28 1 0 5 13 5 30 0 17 -5 30 -5 30 0 0 5 13 5 30
0 17 -5 30 -5 30 0 0 5 13 5 30 0 17 -5 30 -5 30 0 0 5 13 5 30 0 17 -5 30 -5
30 0 0 5 13 5 30 0 17 -5 30 -5 30 0 0 5 13 5 30 0 17 -5 30 -5 30 0 0 5 13 5
30 0 17 -5 30 -5 30 0 0 5 13 5 30 0 17 -5 30 -5 30 0 0 5 13 5 30 0 17 -5 30
-5 30 0 0 5 13 5 30 0 17 -5 30 -5 30 0 0 5 13 5 30 0 17 -5 30 -5 30 0 0 5
13 5 30 0 17 -5 30 -5 30 0 0 5 13 5 30 0 17 -5 30 -5 30 0 0 5 13 5 30 0 17
-5 30 -5 30 0 0 5 13 5 30 0 17 -5 30 -5 30 0 0 5 13 5 30 0 17 -5 30 -5 30 0
0 5 12 5 28 1 26 -7 62 -4 62 5 0 4 -2475 2479 -2523 2523 -25 23 -27 23 -28
5z"/>
</g>
</svg>
